# xmcd
#
# Track frame offsets: 
#        150
#        19890
#        38723
#        58223
#        78151
#        94839
#        114017
#        130757
#        148427
#        167800
#
# Disc length: 2493 seconds
#
# Revision: 0
# Processed by: cddbd v1.5.2PL0 Copyright (c) Steve Scherf et al.
# Submitted via: ExactAudioCopy v0.99pb4
#
DISCID=8209bb0a
DTITLE=ไอดิน อภินันท์ - ตั๋วกันจ้อๆ
DYEAR=2009
DGENRE=Country
TTITLE0=ตํ๋วกันจ้อๆ
TTITLE1=บอกสาวก้อยให้แหน่
TTITLE2=เสี'ายอ้ายบ่ปึก
TTITLE3=โทรหาอ้ายกะได้เด้อ
TTITLE4=สวัสดีน้องสาว
TTITLE5=บ่าวกีต้าร์ยืม
TTITLE6=ลืมคิดฮอดกันล่ะบ่
TTITLE7=บ่ต้องห่วงเด้อครับ
TTITLE8=ฝากใจกับสายฝน
TTITLE9=ย่านผู้สาวบ่มัก
EXTD=
EXTT0=
EXTT1=
EXTT2=
EXTT3=
EXTT4=
EXTT5=
EXTT6=
EXTT7=
EXTT8=
EXTT9=
PLAYORDER=
